<?xml version="1.0" standalone="no"?>
<!DOCTYPE svg PUBLIC "-//W3C//DTD SVG 20010904//EN"
 "http://www.w3.org/TR/2001/REC-SVG-20010904/DTD/svg10.dtd">
<svg version="1.0" xmlns="http://www.w3.org/2000/svg"
 width="309.000000pt" height="119.000000pt" viewBox="0 0 309.000000 119.000000"
 preserveAspectRatio="xMidYMid meet">

<g transform="translate(0.000000,119.000000) scale(0.100000,-0.100000)"
fill="#000000" stroke="none">
<path d="M970 1061 c0 -6 10 -30 21 -54 l21 -43 -21 -42 c-11 -23 -21 -46 -21
-52 0 -19 19 0 36 37 l17 35 19 -35 c36 -71 52 -56 17 16 l-21 43 21 42 c24
47 25 52 11 52 -5 0 -18 -17 -29 -37 l-19 -38 -15 36 c-15 36 -37 60 -37 40z"/>
<path d="M331 1039 c-9 -22 -10 -22 -11 -4 l-1 20 -9 -20 c-6 -14 -9 -15 -10
-5 -1 8 -10 -3 -20 -25 -10 -22 -19 -33 -20 -25 0 9 -7 3 -16 -13 -8 -15 -12
-33 -8 -39 5 -7 3 -8 -6 -3 -8 5 -11 3 -8 -6 3 -8 12 -12 19 -11 8 2 10 0 6
-4 -15 -15 -36 -12 -54 9 -10 11 -12 17 -5 13 6 -4 12 -2 12 4 0 6 4 8 10 5 6
-4 7 1 3 11 -5 13 -3 15 7 9 10 -6 12 -4 7 9 -4 9 -3 14 2 11 5 -3 13 4 16 16
5 15 10 18 15 9 5 -8 9 -5 13 9 4 18 2 19 -14 10 -10 -5 -19 -14 -19 -20 0 -6
-4 -8 -9 -4 -5 3 -12 -4 -16 -15 -3 -11 -10 -20 -15 -20 -5 0 -19 -17 -29 -39
-20 -38 -20 -39 -1 -56 29 -26 46 -8 19 21 -12 13 -20 24 -18 24 3 0 18 -14
35 -31 16 -17 23 -29 14 -27 -8 2 -14 -3 -13 -9 4 -18 -4 -16 -37 7 -22 16
-29 17 -33 6 -3 -7 0 -19 6 -26 9 -10 8 -12 -5 -7 -33 12 -18 -3 25 -23 23
-12 34 -14 24 -7 -16 13 -16 15 -1 21 17 7 45 -10 41 -24 -1 -5 6 -15 16 -22
15 -11 13 -13 -24 -14 -39 -1 -40 0 -17 13 13 9 16 12 5 9 -10 -3 -31 1 -47 9
-43 22 -51 17 -10 -6 l35 -20 -35 6 c-32 5 -33 4 -10 -6 14 -6 40 -12 58 -15
18 -2 42 -9 53 -15 13 -6 25 -7 32 -1 14 11 47 12 47 1 0 -8 -74 -39 -96 -39
-8 0 -22 -7 -30 -15 -14 -13 -12 -15 13 -16 28 -1 28 -1 3 -8 -23 -6 -24 -7
-5 -15 15 -5 25 -1 40 16 17 20 28 23 63 20 43 -4 43 -4 36 24 -6 27 -5 28 8
10 14 -18 15 -16 20 27 3 25 15 59 27 75 11 17 21 37 21 45 0 8 7 20 16 28 13
11 14 9 8 -17 -4 -16 -18 -42 -31 -57 -12 -16 -23 -36 -22 -45 0 -15 2 -15 12
2 7 10 22 31 35 46 12 15 22 32 22 37 0 5 14 30 30 56 35 55 34 52 16 70 -9 9
-11 19 -5 28 7 11 9 10 9 -6 0 -17 2 -18 11 -5 8 12 9 10 4 -9 -5 -17 -4 -21
5 -16 9 5 10 1 6 -16 -7 -23 -7 -23 8 -5 19 23 21 40 4 30 -7 -5 -9 -2 -6 8 4
10 -7 21 -39 37 -25 12 -47 20 -49 18 -3 -3 -10 -32 -14 -62 -2 -16 -19 28
-19 50 l0 20 9 -20 c8 -19 9 -19 9 1 1 12 -6 24 -14 28 -10 4 -15 -1 -16 -17
-1 -21 -1 -21 -7 -2 -7 21 -24 26 -38 13 -4 -4 -13 -3 -20 3 -11 9 -16 6 -23
-12z m-157 -202 c18 -13 18 -14 1 -21 -10 -3 -20 -4 -23 -1 -3 3 1 5 9 5 10 1
8 5 -5 15 -11 8 -15 15 -10 15 6 0 18 -6 28 -13z"/>
<path d="M870 965 l0 -95 41 0 c24 0 38 4 34 10 -3 6 -17 10 -31 10 -20 0 -24
5 -24 30 0 27 3 30 31 30 38 0 35 24 -4 28 -22 3 -27 8 -27 33 0 24 4 29 24
29 14 0 28 5 31 10 4 6 -10 10 -34 10 l-41 0 0 -95z"/>
<path d="M1100 960 c0 -60 4 -100 10 -100 6 0 10 17 10 38 0 32 5 39 33 52 25
12 33 22 35 48 4 43 -12 62 -54 62 l-34 0 0 -100z m63 59 c14 -22 2 -49 -23
-49 -16 0 -20 6 -20 36 0 28 4 35 16 32 9 -2 21 -10 27 -19z"/>
<path d="M1210 966 c0 -53 4 -98 10 -101 6 -4 10 10 10 34 0 48 13 53 30 11
14 -33 40 -60 40 -41 0 6 -8 23 -17 37 -15 24 -15 27 -1 35 25 14 33 66 14 94
-12 19 -25 25 -51 25 l-35 0 0 -94z m61 64 c34 -19 18 -70 -23 -70 -14 0 -18
8 -18 40 0 41 8 47 41 30z"/>
<path d="M1335 1047 c-4 -10 -2 -109 4 -174 1 -8 15 -12 36 -11 41 1 42 21 2
26 -22 3 -27 8 -27 33 0 26 3 29 30 29 38 0 40 18 3 22 -24 3 -28 8 -28 33 0
25 4 30 28 33 15 2 27 8 27 13 0 14 -70 11 -75 -4z"/>
<path d="M1452 1048 c-13 -13 -16 -57 -4 -74 4 -6 17 -16 30 -23 13 -7 22 -21
22 -35 0 -29 -30 -44 -42 -21 -15 25 -28 17 -16 -10 14 -30 53 -34 68 -6 19
36 12 69 -20 93 -31 22 -39 51 -19 64 7 4 16 -1 21 -10 10 -17 28 -22 28 -7 0
14 -29 41 -44 41 -6 0 -17 -5 -24 -12z"/>
<path d="M1552 1048 c-13 -13 -16 -57 -4 -74 4 -6 17 -16 30 -23 14 -7 22 -21
22 -37 0 -32 -27 -42 -45 -18 -19 27 -28 13 -9 -15 21 -29 56 -24 68 10 13 37
1 74 -29 87 -26 12 -34 45 -13 58 6 4 17 -1 24 -11 18 -24 29 -13 14 14 -12
23 -40 27 -58 9z"/>
<path d="M2408 1042 c12 -2 22 -6 22 -10 0 -4 11 -7 25 -7 14 0 25 3 25 7 0 3
23 4 50 1 28 -3 50 -1 50 4 0 5 -44 9 -97 9 -54 0 -88 -2 -75 -4z"/>
<path d="M2599 1037 c5 -5 51 -9 102 -9 80 -1 90 -3 74 -14 -11 -8 -13 -14 -6
-14 7 0 10 -4 7 -8 -3 -5 1 -9 9 -9 10 0 12 4 5 12 -5 7 -7 15 -3 18 9 10 34
-14 26 -26 -3 -6 -1 -7 5 -3 9 5 7 14 -5 31 -19 25 -16 25 -165 29 -32 0 -53
-3 -49 -7z"/>
<path d="M2816 1029 c3 -6 15 -9 25 -6 15 4 18 1 15 -18 -3 -14 2 -29 12 -37
13 -11 14 -11 7 2 -20 33 -11 53 30 63 11 2 -6 5 -38 6 -40 1 -56 -2 -51 -10z"/>
<path d="M2929 1033 c-5 -40 -5 -64 2 -68 4 -3 6 3 4 12 -1 10 0 23 4 28 9 17
10 35 0 35 -5 0 -9 -3 -10 -7z"/>
<path d="M2961 1023 c-1 -13 4 -23 9 -23 13 0 13 -27 0 -32 -6 -2 -2 -8 8 -15
18 -11 19 -8 16 34 -2 45 -13 73 -15 37 0 -18 -1 -18 -9 1 -8 19 -9 19 -9 -2z"/>
<path d="M2391 945 l-1 -86 304 1 305 1 -2 33 c-1 18 -7 33 -13 33 -12 0 -13
-15 -1 -33 3 -6 4 -14 0 -18 -10 -10 -71 -7 -78 3 -3 6 4 8 15 6 11 -2 18 0
15 6 -4 5 -9 7 -13 5 -4 -2 -13 2 -20 10 -7 8 -8 14 -2 14 5 0 10 8 10 17 0
14 -3 13 -16 -5 -8 -12 -19 -20 -24 -17 -16 10 -20 -13 -4 -26 8 -7 14 -8 12
-2 -2 6 1 10 7 9 5 0 10 -7 11 -14 2 -10 -12 -12 -54 -10 -35 2 -57 7 -57 15
0 6 -4 15 -9 20 -5 4 -6 3 -3 -3 4 -7 1 -17 -7 -23 -17 -14 -35 5 -31 32 2 9
0 15 -5 12 -9 -6 -8 -24 3 -42 6 -9 0 -13 -18 -13 -18 0 -24 4 -19 13 6 9 5 9
-8 -1 -12 -10 -18 -10 -27 2 -9 11 -9 15 1 19 11 4 10 6 0 6 -7 1 -10 6 -6 13
4 6 3 8 -4 5 -11 -8 -11 -25 1 -44 6 -10 -15 -13 -97 -13 -99 0 -105 1 -101
20 2 11 -1 20 -6 20 -5 0 -9 -8 -7 -17 4 -25 -36 -24 -40 1 -3 13 0 16 10 10
10 -6 11 -5 2 7 -6 8 -10 35 -8 61 1 26 -1 50 -6 53 -4 3 -9 -33 -9 -80z"/>
<path d="M2684 996 c1 -14 4 -28 7 -31 3 -3 5 6 5 19 -1 14 -4 28 -7 31 -3 3
-5 -6 -5 -19z"/>
<path d="M2730 1012 c-17 -8 -23 -52 -8 -52 6 0 8 6 5 14 -8 19 3 28 19 15 9
-8 11 -5 7 10 -3 12 -6 21 -7 20 0 0 -8 -3 -16 -7z"/>
<path d="M2885 1001 c2 -9 4 -18 5 -21 1 -3 2 -9 0 -15 -1 -5 5 -4 12 4 11 11
11 14 0 18 -9 4 -10 9 -3 17 8 9 7 13 -3 13 -8 0 -12 -7 -11 -16z"/>
<path d="M2575 1003 c3 -3 0 -11 -5 -18 -7 -8 -5 -12 4 -12 14 0 16 22 3 32
-4 3 -5 2 -2 -2z"/>
<path d="M2654 1002 c3 -6 -2 -13 -11 -15 -16 -4 -16 -5 -1 -6 21 -1 32 15 17
25 -7 4 -9 3 -5 -4z"/>
<path d="M566 945 c-9 -14 -21 -23 -25 -20 -9 5 -51 -58 -51 -76 0 -17 68 -81
79 -74 6 3 9 10 6 15 -3 5 0 12 6 16 8 4 9 3 5 -4 -10 -16 -3 -15 39 5 19 9
35 20 35 25 0 5 -15 1 -32 -8 l-33 -16 30 26 c17 14 24 25 17 26 -7 0 -10 5
-7 10 3 6 1 10 -5 10 -6 0 -8 5 -5 10 10 16 -11 12 -25 -5 -11 -13 -10 -14 6
-8 17 6 17 5 5 -10 -12 -15 -12 -17 3 -11 25 10 19 -2 -11 -22 -27 -17 -28
-17 -13 1 14 17 13 18 -5 11 -15 -5 -17 -4 -8 5 14 14 6 42 -10 32 -12 -7 -1
14 20 39 10 11 12 22 6 33 -9 15 -12 13 -27 -10z m15 -13 c-5 -10 -18 -25 -28
-33 -12 -10 -11 -5 6 19 24 35 38 43 22 14z"/>
<path d="M2603 955 c4 -8 2 -17 -4 -21 -7 -4 -5 -12 5 -23 9 -10 13 -21 9 -26
-5 -4 -2 -5 5 -1 8 5 10 12 4 19 -5 7 -8 24 -7 40 1 15 -2 27 -8 27 -5 0 -7
-7 -4 -15z"/>
<path d="M2670 945 c0 -2 6 -8 13 -14 10 -8 14 -7 14 2 0 8 -6 14 -14 14 -7 0
-13 -1 -13 -2z"/>
<path d="M2550 925 c0 -2 6 -8 13 -14 10 -8 14 -7 14 2 0 8 -6 14 -14 14 -7 0
-13 -1 -13 -2z"/>
<path d="M2800 921 c0 -6 4 -12 8 -15 5 -3 9 1 9 9 0 8 -4 15 -9 15 -4 0 -8
-4 -8 -9z"/>
<path d="M589 903 c-13 -16 -12 -17 4 -4 16 13 21 21 13 21 -2 0 -10 -8 -17
-17z"/>
<path d="M195 800 c3 -5 11 -10 16 -10 6 0 7 5 4 10 -3 6 -11 10 -16 10 -6 0
-7 -4 -4 -10z"/>
<path d="M613 790 c-18 -11 -33 -24 -33 -30 0 -5 -12 -10 -26 -10 -16 0 -23
-4 -18 -12 4 -7 3 -8 -5 -4 -6 4 -22 -5 -37 -23 -14 -17 -33 -31 -42 -32 -13
0 -13 -2 3 -9 15 -6 27 -1 50 21 28 26 33 27 51 15 21 -15 98 -15 101 -1 1 4
7 12 15 16 9 6 3 9 -17 9 -28 1 -29 2 -7 10 12 5 22 12 22 15 0 4 -10 3 -22
-1 -49 -15 -51 -14 -13 6 37 19 38 20 10 15 -28 -4 -28 -4 -7 7 21 11 30 28
15 28 -5 0 -23 -9 -40 -20z"/>
<path d="M870 700 c0 -60 4 -100 10 -100 6 0 10 18 10 40 0 29 4 40 15 40 23
0 55 37 55 64 0 33 -25 56 -61 56 l-29 0 0 -100z m68 43 c2 -13 -4 -26 -16
-32 -24 -13 -32 -5 -32 31 0 25 4 29 23 26 14 -2 23 -11 25 -25z"/>
<path d="M980 700 l0 -100 40 0 c29 0 40 4 40 15 0 10 -10 15 -30 15 -27 0
-30 3 -30 30 0 27 3 30 30 30 17 0 30 5 30 10 0 6 -13 10 -30 10 -27 0 -30 3
-30 30 0 27 3 30 30 30 20 0 30 5 30 15 0 11 -11 15 -40 15 l-40 0 0 -100z"/>
<path d="M1091 781 c-18 -33 -13 -50 27 -86 30 -28 35 -38 26 -52 -16 -26 -35
-28 -41 -4 -7 26 -23 28 -23 3 0 -45 60 -58 78 -16 17 35 5 72 -29 90 -16 8
-29 21 -29 30 0 20 30 30 40 13 5 -7 12 -10 17 -6 11 12 -11 42 -35 45 -13 2
-25 -4 -31 -17z"/>
<path d="M1180 786 c0 -8 6 -16 13 -18 12 -5 14 -18 16 -116 1 -29 5 -51 9
-48 5 3 7 41 4 86 -4 69 -2 80 12 80 34 0 16 27 -19 28 -24 1 -35 -3 -35 -12z"/>
<path d="M1270 700 c0 -60 4 -100 10 -100 6 0 10 40 10 100 0 60 -4 100 -10
100 -6 0 -10 -40 -10 -100z"/>
<path d="M1357 789 c-27 -16 -45 -68 -40 -111 6 -48 52 -93 86 -84 29 7 67 56
43 56 -7 0 -19 -7 -26 -15 -19 -23 -46 -18 -69 11 -24 30 -26 52 -9 89 15 33
49 41 82 20 23 -15 26 -15 26 -2 0 18 -37 47 -60 47 -8 0 -23 -5 -33 -11z"/>
<path d="M1530 698 l0 -98 39 0 c52 0 81 35 81 95 0 58 -28 92 -80 97 l-40 4
0 -98z m80 52 c41 -41 17 -130 -37 -130 -22 0 -23 3 -23 75 0 68 2 75 20 75
11 0 29 -9 40 -20z"/>
<path d="M1800 780 c-34 -34 -27 -58 33 -107 20 -16 10 -53 -14 -53 -10 0 -23
8 -28 18 -10 15 -10 15 -11 -4 0 -22 17 -44 36 -44 23 0 44 31 44 65 0 28 -6
37 -29 50 -36 18 -43 28 -35 49 8 21 30 20 43 -1 6 -10 11 -16 11 -13 7 33 6
42 -11 50 -14 8 -23 6 -39 -10z"/>
<path d="M1480 695 c0 -57 4 -95 10 -95 6 0 10 38 10 95 0 57 -4 95 -10 95 -6
0 -10 -38 -10 -95z"/>
<path d="M1678 692 l3 -98 35 0 c41 0 47 23 7 28 -22 2 -29 9 -31 31 -3 27 3
31 41 28 9 -1 17 2 17 8 0 5 -12 11 -27 13 -24 3 -28 8 -28 33 0 25 4 30 28
33 41 5 33 22 -10 22 l-38 0 3 -98z"/>
<path d="M2463 773 c33 -3 45 -8 40 -16 -5 -9 -3 -9 8 -1 8 7 55 12 116 12 93
0 103 -2 121 -23 11 -13 19 -26 16 -29 -2 -3 1 -2 7 2 5 5 11 19 12 31 1 17 8
21 34 21 18 0 33 -4 33 -10 0 -5 -5 -10 -11 -10 -6 0 -17 -7 -25 -15 -13 -12
-11 -14 13 -12 19 1 27 -2 25 -11 -1 -8 2 -11 8 -7 8 5 7 12 -2 23 -10 12 -10
16 0 19 6 3 9 9 6 14 -3 6 21 9 60 8 50 -1 66 -6 69 -18 3 -10 5 -8 6 7 l1 22
-292 -2 c-161 -1 -272 -3 -245 -5z m312 -15 c4 -3 2 -9 -3 -12 -5 -3 -15 1
-21 8 -10 11 -9 14 3 12 9 -1 18 -5 21 -8z"/>
<path d="M2397 753 c-10 -9 -9 -23 1 -23 5 0 9 7 9 15 0 17 -1 18 -10 8z"/>
<path d="M2455 751 c-6 -11 23 -36 32 -27 3 3 0 6 -8 6 -11 0 -12 2 -1 9 11 7
11 9 -2 14 -8 3 -18 2 -21 -2z"/>
<path d="M2530 751 c0 -4 12 -7 28 -6 15 1 34 -4 43 -12 13 -11 16 -11 16 2 0
8 -5 15 -11 16 -6 0 -26 2 -43 4 -18 2 -33 0 -33 -4z"/>
<path d="M2679 751 c8 -5 9 -11 3 -15 -6 -3 -13 -2 -17 4 -9 14 -22 12 -28 -4
-4 -9 0 -13 11 -11 9 1 22 -2 29 -7 7 -5 14 -5 18 2 3 6 11 8 16 5 5 -4 9 -2
9 4 0 6 -9 15 -19 21 -24 12 -42 13 -22 1z"/>
<path d="M164 732 c3 -6 -2 -13 -11 -15 -16 -4 -16 -5 -1 -6 21 -1 32 15 17
25 -7 4 -9 3 -5 -4z"/>
<path d="M190 719 c0 -7 36 -19 58 -19 7 0 10 5 7 10 -4 6 -11 8 -16 5 -5 -4
-9 -2 -9 4 0 5 -9 9 -20 8 -11 -1 -20 -4 -20 -8z"/>
<path d="M2520 719 c0 -5 -5 -7 -12 -3 -7 4 -8 3 -4 -5 6 -9 11 -9 22 0 17 14
18 19 4 19 -5 0 -10 -5 -10 -11z"/>
<path d="M2913 715 c0 -8 4 -12 9 -9 5 3 6 10 3 15 -9 13 -12 11 -12 -6z"/>
<path d="M2988 711 c-4 -15 -11 -21 -20 -15 -7 4 -5 -1 4 -12 9 -11 16 -34 16
-52 l-1 -32 -286 -2 -286 -3 290 -5 290 -5 3 38 c2 21 2 54 0 75 -3 31 -4 33
-10 13z"/>
<path d="M2395 710 c-3 -5 1 -10 10 -10 9 0 13 5 10 10 -3 6 -8 10 -10 10 -2
0 -7 -4 -10 -10z"/>
<path d="M2795 691 c-3 -5 -1 -12 5 -16 6 -4 7 -12 3 -18 -5 -8 -2 -8 9 0 8 7
19 9 24 5 5 -4 0 3 -10 16 -22 25 -23 25 -31 13z"/>
<path d="M500 668 c-12 -10 -37 -18 -56 -18 -36 0 -48 -23 -18 -34 9 -4 14 -9
11 -12 -3 -3 -15 0 -27 6 -21 11 -21 11 -14 -42 4 -29 8 -63 8 -75 1 -13 4
-23 9 -23 4 0 7 -12 7 -26 0 -23 2 -25 15 -14 9 7 18 10 22 6 3 -3 1 -6 -5 -6
-7 0 -12 -12 -11 -27 0 -27 1 -27 9 -5 13 31 23 28 16 -5 -3 -16 -3 -22 0 -15
9 19 24 14 18 -5 -2 -10 3 -3 12 15 21 37 29 40 45 11 7 -14 14 -18 21 -11 7
7 6 17 -1 30 -10 19 -8 20 14 16 21 -4 28 3 51 48 25 50 26 52 8 66 -18 13
-18 14 4 7 33 -10 27 3 -10 20 -24 11 -27 14 -9 11 26 -5 60 19 38 27 -6 3 -3
6 8 7 16 1 14 4 -10 16 l-30 14 30 -5 c27 -5 28 -4 12 9 -18 14 -18 14 0 19
11 3 7 5 -12 6 -120 7 -134 6 -155 -11z m-55 -95 c-4 -10 -7 -30 -6 -45 1 -15
-3 -29 -9 -33 -13 -8 -13 51 0 76 13 24 25 25 15 2z m191 -45 c4 -5 2 -8 -5
-8 -7 0 -9 -4 -6 -10 4 -6 -1 -7 -12 -3 -16 6 -17 5 -3 -13 14 -18 14 -18 -3
-5 -9 8 -15 16 -12 19 3 3 1 10 -5 17 -6 8 -2 11 15 10 13 0 27 -3 31 -7z"/>
<path d="M2406 681 c-4 -7 -5 -15 -2 -18 9 -9 19 4 14 18 -4 11 -6 11 -12 0z"/>
<path d="M2585 681 c-3 -5 -2 -12 3 -15 5 -3 9 1 9 9 0 17 -3 19 -12 6z"/>
<path d="M2650 686 c0 -2 8 -10 18 -17 15 -13 16 -12 3 4 -13 16 -21 21 -21
13z"/>
<path d="M2943 665 c0 -8 4 -12 9 -9 4 3 8 9 8 15 0 5 -4 9 -8 9 -5 0 -9 -7
-9 -15z"/>
<path d="M150 660 l-25 -8 28 -1 c15 -1 27 4 27 9 0 6 -1 10 -2 9 -2 -1 -14
-5 -28 -9z"/>
<path d="M285 640 c-3 -5 -1 -10 4 -10 6 0 11 5 11 10 0 6 -2 10 -4 10 -3 0
-8 -4 -11 -10z"/>
<path d="M2452 646 c4 -5 3 -15 -3 -22 -7 -9 -6 -12 5 -10 25 3 28 12 9 27
-10 7 -15 9 -11 5z"/>
<path d="M2899 633 c-13 -16 -12 -17 4 -4 9 7 17 15 17 17 0 8 -8 3 -21 -13z"/>
<path d="M179 633 c11 -4 11 -7 2 -13 -7 -4 0 -7 18 -6 34 1 29 12 -9 19 -14
2 -19 2 -11 0z"/>
<path d="M2583 625 c0 -7 6 -12 14 -11 19 3 21 19 2 21 -9 2 -16 -3 -16 -10z"/>
<path d="M118 623 c6 -2 18 -2 25 0 6 3 1 5 -13 5 -14 0 -19 -2 -12 -5z"/>
<path d="M2494 622 c4 -3 14 -7 22 -8 9 -1 13 0 10 4 -4 3 -14 7 -22 8 -9 1
-13 0 -10 -4z"/>
<path d="M126 601 c-4 -5 3 -7 14 -4 23 6 26 13 6 13 -8 0 -17 -4 -20 -9z"/>
<path d="M155 590 c-35 -17 -37 -19 -10 -14 l30 6 -25 -22 -25 -22 27 16 c41
24 47 19 13 -10 -20 -18 -23 -22 -8 -15 12 6 25 16 28 21 3 6 11 10 17 10 6 0
4 -8 -5 -18 -10 -11 -13 -22 -7 -32 5 -8 6 -18 3 -24 -4 -5 -1 -6 6 -2 7 5 10
11 7 14 -3 3 -1 11 6 19 9 11 7 12 -8 7 -18 -7 -18 -7 0 15 24 27 29 62 8 53
-10 -3 -13 -1 -8 6 10 16 -1 14 -49 -8z m51 -16 c18 -14 18 -14 -6 -3 -31 14
-36 19 -24 19 6 0 19 -7 30 -16z"/>
<path d="M2390 600 c0 -5 5 -10 10 -10 6 0 10 5 10 10 0 6 -4 10 -10 10 -5 0
-10 -4 -10 -10z"/>
<path d="M870 435 c0 -57 4 -95 10 -95 6 0 10 18 10 40 0 36 3 40 25 40 27 0
45 25 45 62 0 33 -18 48 -57 48 l-33 0 0 -95z m65 40 c0 -23 -5 -31 -22 -33
-20 -3 -23 1 -23 33 0 32 3 36 23 33 17 -2 22 -10 22 -33z"/>
<path d="M980 435 c0 -95 16 -133 22 -52 l3 42 29 -50 c31 -53 49 -48 21 5
-16 31 -16 33 4 47 23 15 27 53 11 84 -8 14 -21 19 -50 19 l-40 0 0 -95z m74
53 c14 -23 -3 -52 -33 -56 -19 -3 -21 1 -21 38 0 37 2 41 21 38 12 -2 27 -11
33 -20z"/>
<path d="M1100 430 c0 -60 4 -100 10 -100 6 0 10 40 10 100 0 60 -4 100 -10
100 -6 0 -10 -40 -10 -100z"/>
<path d="M1163 430 c17 -55 33 -97 36 -94 9 9 59 188 54 194 -8 8 -22 -25 -34
-78 -7 -29 -16 -55 -20 -57 -3 -3 -15 27 -25 65 -10 39 -23 70 -30 70 -8 0 -2
-33 19 -100z"/>
<path d="M1307 523 c-5 -8 -17 -49 -42 -135 -7 -27 -9 -50 -5 -53 5 -3 11 8
15 25 6 26 11 30 40 30 28 0 35 -5 44 -32 6 -17 14 -29 17 -25 7 7 -48 197
-58 197 -4 0 -9 -3 -11 -7z m23 -57 c0 -8 3 -21 6 -30 4 -12 0 -16 -15 -16
-15 0 -21 6 -21 23 0 13 3 27 7 30 11 12 23 8 23 -7z"/>
<path d="M1370 521 c0 -5 7 -11 15 -15 12 -4 15 -23 15 -85 0 -44 5 -83 10
-86 6 -4 10 25 10 80 0 67 3 87 15 91 28 11 15 24 -25 24 -22 0 -40 -4 -40 -9z"/>
<path d="M1470 432 l0 -99 35 0 c23 0 35 5 35 14 0 7 -11 13 -25 13 -21 0 -25
5 -25 30 0 25 4 30 25 30 14 0 25 5 25 10 0 6 -11 10 -25 10 -22 0 -25 4 -25
35 0 31 3 35 25 35 14 0 25 5 25 10 0 6 -16 10 -35 10 l-35 0 0 -98z"/>
<path d="M1637 453 c1 -43 2 -88 3 -100 0 -19 6 -23 30 -23 36 0 40 17 5 26
-24 6 -25 9 -25 90 0 46 -3 84 -7 84 -5 0 -7 -35 -6 -77z"/>
<path d="M1728 523 c-2 -5 0 -51 3 -103 l5 -95 2 103 c2 92 -1 117 -10 95z"/>
<path d="M1779 523 c-4 -23 2 -187 6 -191 3 -3 5 29 5 72 0 42 3 75 8 72 4 -2
16 -36 27 -75 10 -39 23 -71 27 -71 4 0 12 19 18 43 6 23 17 60 25 82 l13 40
1 -83 c1 -55 5 -81 11 -77 13 8 11 185 -1 185 -5 0 -12 1 -15 3 -4 1 -17 -31
-29 -72 -24 -82 -28 -81 -53 11 -10 34 -23 63 -29 66 -7 2 -14 0 -14 -5z"/>
<path d="M1995 522 c-10 -10 -5 -22 10 -22 12 0 15 -16 15 -85 0 -50 4 -85 10
-85 6 0 10 35 10 85 0 69 3 85 15 85 18 0 20 20 3 21 -7 0 -23 2 -36 3 -12 2
-24 0 -27 -2z"/>
<path d="M1955 425 c0 -52 3 -95 8 -95 4 0 7 43 7 95 0 52 -3 95 -7 95 -5 0
-8 -43 -8 -95z"/>
<path d="M2090 493 c-1 -16 -2 -58 -3 -96 l-2 -67 38 0 c43 0 51 17 10 22 -24
3 -28 8 -28 33 0 25 4 30 28 33 15 2 27 7 27 12 0 5 -12 10 -27 12 -22 2 -29
9 -31 31 -3 24 0 27 27 27 17 0 31 5 31 10 0 6 -16 10 -35 10 -31 0 -35 -3
-35 -27z"/>
<path d="M2190 425 l0 -95 39 0 c53 0 81 34 81 100 0 59 -29 90 -83 90 l-37 0
0 -95z m82 58 c24 -27 30 -57 18 -89 -13 -33 -26 -44 -57 -44 -22 0 -23 4 -23
75 0 72 1 75 23 75 13 0 31 -8 39 -17z"/>
<path d="M2390 485 c0 -14 2 -25 4 -25 2 0 6 11 8 25 3 14 1 25 -3 25 -5 0 -9
-11 -9 -25z"/>
<path d="M2440 503 c8 -3 18 -11 22 -17 6 -8 8 -8 8 1 0 7 30 11 95 12 71 1
94 -2 93 -11 -2 -7 -10 -16 -18 -20 -10 -4 -6 -6 11 -5 14 0 26 7 26 14 0 6
-5 9 -10 6 -6 -3 -7 -1 -3 6 6 9 11 9 24 -1 12 -10 14 -10 8 0 -5 8 1 12 19
12 14 0 24 -4 21 -9 -7 -10 13 -9 31 2 6 4 15 2 19 -4 4 -7 3 -9 -3 -6 -5 3
-10 0 -10 -8 0 -11 4 -12 14 -4 7 6 10 15 7 20 -3 5 2 9 11 9 9 0 14 -4 10 -9
-3 -5 -1 -12 4 -15 5 -4 13 -1 17 5 5 8 3 9 -6 4 -9 -5 -11 -4 -6 4 4 6 13 8
19 4 18 -11 38 -12 31 -2 -3 5 2 9 11 9 9 0 14 -4 11 -8 -6 -11 40 -9 50 1 4
4 13 2 21 -4 10 -9 13 -8 13 5 0 14 -28 16 -277 15 -153 0 -271 -3 -263 -6z"/>
<path d="M2990 436 c0 -41 -4 -77 -9 -81 -6 -3 -8 4 -6 15 2 11 0 18 -5 15
-11 -7 -6 -41 6 -37 4 2 11 -5 15 -15 4 -10 8 26 8 80 1 53 -1 97 -4 97 -3 0
-5 -33 -5 -74z"/>
<path d="M2496 458 c3 -4 -3 -8 -12 -8 -10 0 -15 -3 -11 -6 3 -4 14 -3 24 1
10 5 21 9 25 9 19 3 14 12 -7 12 -13 0 -21 -4 -19 -8z"/>
<path d="M2598 463 c7 -3 16 -2 19 1 4 3 -2 6 -13 5 -11 0 -14 -3 -6 -6z"/>
<path d="M2594 429 c-15 -17 -15 -18 5 -14 11 2 21 -1 21 -7 0 -17 10 -3 14
19 5 25 -18 26 -40 2z m30 3 c3 -5 -1 -9 -9 -9 -8 0 -12 4 -9 9 3 4 7 8 9 8 2
0 6 -4 9 -8z"/>
<path d="M2653 433 c0 -7 3 -11 5 -8 3 3 11 0 18 -6 8 -7 14 -7 19 1 3 6 11 7
17 4 6 -4 8 -2 4 4 -3 6 2 13 11 15 10 3 6 4 -9 4 -15 -1 -26 -4 -25 -7 1 -3
-2 -6 -8 -6 -5 -1 -9 1 -8 5 1 4 -4 8 -11 8 -7 0 -13 -6 -13 -14z"/>
<path d="M2753 445 c4 -5 -1 -18 -10 -29 -10 -12 -14 -18 -9 -14 5 4 15 3 22
-3 8 -7 14 -6 20 2 4 7 3 9 -4 5 -6 -3 -13 -2 -16 3 -4 5 3 11 14 13 20 3 20
3 -2 17 -13 7 -20 10 -15 6z"/>
<path d="M2810 445 c0 -2 6 -8 13 -14 10 -8 14 -7 14 2 0 8 -6 14 -14 14 -7 0
-13 -1 -13 -2z"/>
<path d="M2863 434 c15 -16 19 -17 27 -4 9 13 10 13 10 0 0 -9 3 -11 8 -5 14
20 35 17 29 -5 -3 -11 -1 -17 4 -14 6 3 9 13 7 22 -3 17 -68 27 -68 10 0 -6
-7 -5 -17 3 -16 12 -16 11 0 -7z"/>
<path d="M310 431 c0 -6 5 -13 10 -16 6 -3 10 1 10 9 0 9 -4 16 -10 16 -5 0
-10 -4 -10 -9z"/>
<path d="M570 420 c0 -5 5 -10 11 -10 5 0 7 5 4 10 -3 6 -8 10 -11 10 -2 0 -4
-4 -4 -10z"/>
<path d="M2441 422 c0 -8 -6 -10 -13 -6 -7 4 -10 4 -6 -1 4 -4 3 -14 -3 -21
-6 -8 -6 -14 0 -18 5 -4 12 -2 16 4 4 6 10 8 15 5 5 -3 12 0 16 6 4 7 3 9 -4
5 -6 -3 -12 3 -15 16 -2 13 -5 17 -6 10z"/>
<path d="M2497 417 c3 -4 8 -6 11 -3 3 3 11 1 17 -4 9 -7 16 -6 23 3 9 10 4
13 -23 13 -18 0 -31 -4 -28 -9z"/>
<path d="M381 394 c0 -11 3 -14 6 -6 3 7 2 16 -1 19 -3 4 -6 -2 -5 -13z"/>
<path d="M517 396 c-4 -10 -3 -15 3 -11 6 3 10 1 10 -6 0 -7 3 -10 6 -6 3 3 2
13 -4 22 -8 16 -9 16 -15 1z"/>
<path d="M2800 405 c0 -7 30 -13 34 -7 3 4 -4 9 -15 9 -10 1 -19 0 -19 -2z"/>
<path d="M2689 363 c-1 -5 -1 -11 0 -15 1 -8 -26 -13 -44 -8 -5 2 -36 2 -68 1
-45 -1 -56 2 -51 11 6 10 4 10 -7 2 -8 -6 -21 -14 -29 -18 -8 -3 -5 -4 7 -2
13 2 25 1 27 -3 3 -4 107 -8 233 -9 125 -1 221 1 213 5 -8 3 -21 11 -29 17
-11 8 -13 8 -7 -1 5 -9 -1 -13 -20 -13 -22 0 -24 3 -15 14 9 11 9 16 0 22 -7
4 -9 3 -6 -3 12 -19 -16 -29 -73 -29 -40 1 -54 5 -52 14 1 8 -2 11 -8 7 -6 -3
-7 -12 -3 -18 4 -8 1 -7 -9 1 -11 9 -18 10 -23 2 -11 -18 -34 -11 -30 10 2 11
2 20 -1 20 -2 0 -5 -3 -5 -7z"/>
<path d="M2423 347 c0 -7 12 -13 26 -14 14 -1 19 1 11 4 -8 3 -20 10 -26 14
-6 5 -11 4 -11 -4z"/>
<path d="M2390 340 c0 -5 5 -10 10 -10 6 0 10 5 10 10 0 6 -4 10 -10 10 -5 0
-10 -4 -10 -10z"/>
<path d="M982 238 c-16 -16 -15 -33 3 -48 19 -16 20 -34 1 -27 -10 4 -13 1 -9
-9 7 -20 20 -18 33 6 8 15 6 24 -10 40 -24 24 -26 34 -6 27 10 -4 13 -1 9 9
-6 17 -6 17 -21 2z"/>
<path d="M100 223 c0 -12 3 -14 8 -6 4 6 21 13 37 16 27 4 27 4 -7 6 -30 1
-38 -3 -38 -16z"/>
<path d="M190 232 c0 -5 14 -7 30 -4 23 3 30 1 30 -13 0 -14 -7 -16 -30 -13
-19 3 -30 0 -30 -7 0 -9 10 -10 33 -6 23 5 32 12 32 26 0 15 -8 21 -32 23 -18
2 -33 -1 -33 -6z"/>
<path d="M292 228 c-18 -18 -15 -65 4 -72 14 -5 15 -4 5 8 -7 8 -11 25 -9 38
4 27 40 36 66 16 15 -12 16 -11 3 5 -16 20 -51 23 -69 5z"/>
<path d="M397 222 c-10 -10 -17 -23 -17 -28 0 -4 7 2 16 14 18 26 41 28 66 5
22 -20 24 -11 2 11 -21 21 -47 20 -67 -2z"/>
<path d="M501 209 c-1 -34 0 -35 28 -31 22 3 30 0 34 -15 3 -11 4 -9 4 7 -1
22 -5 25 -28 22 -24 -3 -28 0 -32 24 -4 26 -4 25 -6 -7z"/>
<path d="M869 238 c-7 -14 -5 -88 2 -88 6 0 7 5 4 10 -4 6 3 18 15 28 23 18
19 52 -6 52 -8 0 -15 -1 -15 -2z m25 -29 c-3 -5 -10 -7 -15 -3 -5 3 -7 10 -3
15 3 5 10 7 15 3 5 -3 7 -10 3 -15z"/>
<path d="M920 196 c0 -48 8 -60 30 -45 13 7 12 9 -2 9 -22 0 -23 16 -2 28 15
8 15 10 0 15 -21 8 -20 24 2 30 13 4 11 5 -5 6 -21 1 -23 -4 -23 -43z"/>
<path d="M1030 225 c7 -8 10 -28 8 -45 -3 -16 -1 -30 3 -30 4 0 9 20 11 45 3
39 0 45 -16 45 -15 0 -16 -3 -6 -15z"/>
<path d="M1138 198 c-3 -24 -1 -47 3 -52 5 -6 9 2 10 19 l1 30 10 -30 11 -30
13 35 12 35 1 -32 c1 -36 17 -43 36 -17 10 15 13 15 28 -1 9 -9 17 -14 17 -10
0 19 -23 95 -29 95 -4 0 -13 -21 -21 -47 l-14 -48 -6 50 -6 50 -16 -34 -15
-33 -11 31 c-6 17 -13 31 -15 31 -3 0 -7 -19 -9 -42z m122 -8 c0 -5 -4 -10
-10 -10 -5 0 -10 5 -10 10 0 6 5 10 10 10 6 0 10 -4 10 -10z"/>
<path d="M1291 189 c-1 -34 2 -48 10 -44 6 4 8 18 5 31 -9 33 0 30 19 -6 15
-28 45 -42 45 -20 0 6 9 10 20 10 11 0 20 -5 20 -12 0 -6 3 -9 6 -6 3 3 -1 28
-9 54 l-15 49 -11 -28 c-6 -16 -11 -35 -11 -43 0 -8 -4 -14 -10 -14 -5 0 -11
19 -11 43 -2 30 -3 34 -6 14 -4 -23 -7 -26 -19 -16 -8 6 -14 18 -14 25 0 8 -4
14 -8 14 -5 0 -10 -23 -11 -51z m109 1 c0 -5 -4 -10 -10 -10 -5 0 -10 5 -10
10 0 6 5 10 10 10 6 0 10 -4 10 -10z"/>
<path d="M1442 228 c-17 -17 -15 -63 3 -78 18 -15 40 -8 55 19 9 19 8 21 -15
21 -14 0 -25 -5 -25 -11 0 -5 5 -7 11 -3 7 4 10 2 8 -5 -6 -18 -20 -18 -32 0
-17 28 -1 52 30 44 23 -5 25 -4 14 9 -16 19 -33 20 -49 4z"/>
<path d="M1520 190 c0 -38 4 -50 15 -50 8 0 15 5 15 11 0 5 -4 7 -10 4 -5 -3
-10 0 -10 9 0 8 6 17 13 19 9 4 8 8 -3 17 -11 9 -12 13 -2 17 17 7 15 23 -3
23 -11 0 -15 -12 -15 -50z"/>
<path d="M1571 188 c1 -44 3 -48 9 -23 l7 30 7 -27 c9 -31 26 -28 26 3 0 11
-5 17 -10 14 -6 -4 -13 7 -16 24 -10 49 -24 36 -23 -21z"/>
<path d="M1627 226 c-8 -19 3 -87 13 -81 6 4 2 85 -5 93 -1 2 -5 -4 -8 -12z"/>
<path d="M1660 190 c0 -45 2 -50 23 -50 20 1 20 2 5 11 -22 12 -23 29 -3 29 8
0 15 5 15 10 0 6 -7 10 -15 10 -8 0 -15 5 -15 10 0 6 7 10 15 10 8 0 15 5 15
10 0 6 -9 10 -20 10 -17 0 -20 -7 -20 -50z"/>
<path d="M1718 204 c-6 -49 4 -82 12 -39 l6 30 16 -29 15 -29 5 29 c2 16 0 40
-4 54 -7 24 -8 24 -4 -2 4 -35 -9 -36 -27 -1 l-14 27 -5 -40z"/>
<path d="M1794 224 c3 -9 6 -32 6 -51 0 -49 6 -39 12 20 4 37 2 47 -9 47 -10
0 -13 -6 -9 -16z"/>
<path d="M1900 188 c0 -45 2 -49 21 -46 49 7 52 81 4 90 -24 5 -25 3 -25 -44z
m45 12 c7 -21 -9 -50 -26 -50 -5 0 -9 16 -9 35 0 39 24 49 35 15z"/>
<path d="M1973 190 c0 -30 2 -43 4 -27 2 15 2 39 0 55 -2 15 -4 2 -4 -28z"/>
<path d="M1995 223 c3 -10 9 -30 12 -46 9 -43 20 -41 32 8 14 57 13 69 -3 25
l-13 -34 -11 32 c-6 18 -14 32 -18 32 -3 0 -3 -8 1 -17z"/>
<path d="M2097 233 c-13 -12 -7 -51 9 -57 8 -3 13 -10 9 -15 -3 -6 -13 -7 -23
-4 -15 6 -15 5 -3 -10 10 -13 17 -15 27 -6 18 15 18 34 -1 49 -20 17 -19 31 3
23 15 -6 15 -5 3 10 -15 19 -15 19 -24 10z"/>
<path d="M2186 224 c-23 -22 -20 -71 3 -84 40 -21 70 50 35 84 -8 9 -17 16
-19 16 -2 0 -11 -7 -19 -16z m39 -23 c8 -26 -5 -53 -24 -49 -29 6 -27 68 3 68
8 0 17 -8 21 -19z"/>
<path d="M520 226 c0 -2 11 -6 25 -8 13 -3 22 -1 19 3 -5 9 -44 13 -44 5z"/>
<path d="M600 225 c1 -12 70 -88 76 -83 2 2 -14 24 -36 48 -22 24 -40 40 -40
35z"/>
<path d="M2063 185 c0 -27 2 -38 4 -22 2 15 2 37 0 50 -2 12 -4 0 -4 -28z"/>
<path d="M2143 185 c0 -27 2 -38 4 -22 2 15 2 37 0 50 -2 12 -4 0 -4 -28z"/>
<path d="M2255 185 c0 -25 3 -45 6 -45 9 0 18 62 12 78 -10 25 -18 11 -18 -33z"/>
<path d="M2300 204 c0 -14 -4 -23 -10 -19 -15 9 -12 -8 5 -31 13 -18 14 -15
15 29 0 26 -2 47 -5 47 -3 0 -5 -12 -5 -26z"/>
<path d="M102 178 c2 -19 10 -23 38 -24 l35 -2 -32 5 c-43 6 -43 30 0 36 31 4
31 4 -6 5 -34 2 -38 0 -35 -20z"/>
<path d="M466 175 c-3 -9 -16 -20 -28 -25 -16 -6 -18 -9 -6 -9 18 -1 48 24 48
40 0 14 -7 11 -14 -6z"/>
<path d="M341 160 c-13 -11 -19 -20 -13 -20 10 0 42 27 42 36 0 7 -4 5 -29
-16z"/>
<path d="M390 171 c0 -6 4 -13 10 -16 6 -3 7 1 4 9 -7 18 -14 21 -14 7z"/>
</g>
</svg>
